# File created by Blade
# Date/Time:  Wed Apr 08 17:12:12 2015
# Frame Rate: 120.000 fps
#------------------------------------------------------
:FULLY-SPECIFIED
:DEGREES
823
root 5.957872 37.122810 5.914709 128.718506 -55.651711 -143.757076
Spine 36.257874 3.365103 9.252114
Head -5.181574 7.427287 13.746955
LeftShoulder -6.807940 12.860358 19.432465
LeftArm 17.518308 -4.873258 -62.545070
LeftForeArm 19.458247 -0.000000 16.825400
LeftHand -13.565481 -0.000000 -11.063166
LeftHandThumb1 -26.253704 0.000000 33.147579
RightShoulder -32.233222 -49.868058 20.200555
RightArm 52.837412 -24.232085 57.911725
RightForeArm 14.006156 0.000000 19.751917
RightHand 2.504679 -0.000000 14.624346
RightHandThumb1 -24.326973 -0.000000 -32.862282
LeftUpLeg 20.901790 41.214632 32.194481
LeftLeg 18.516823 -0.000000 -0.000000
LeftFoot -20.769284 15.695937 -15.172960
LeftToeBase -7.650299 -0.000000 0.000000
RightUpLeg -66.841844 -31.220934 -5.071802
RightLeg 130.510633 -0.000000 -0.000000
RightFoot 9.223443 -0.985250 14.880043
RightToeBase -6.529440 -0.000000 0.000000
824
root 6.011500 37.163016 5.890454 128.521026 -55.396940 -143.474976
Spine 36.430989 3.128456 9.367161
Head -5.288199 7.817105 13.633156
LeftShoulder -6.779640 12.641115 19.570280
LeftArm 17.506946 -5.853479 -62.392063
LeftForeArm 18.940071 -0.000000 17.310908
LeftHand -13.585436 0.000000 -10.984755
LeftHandThumb1 -26.253704 0.000000 33.147579
RightShoulder -32.240020 -49.924645 20.169225
RightArm 52.602010 -24.212591 58.132403
RightForeArm 14.213157 -0.000000 19.864949
RightHand 2.371156 -0.000000 13.966397
RightHandThumb1 -24.326973 -0.000000 -32.862282
LeftUpLeg 20.879469 41.115552 32.411471
LeftLeg 18.241084 -0.000000 -0.000000
LeftFoot -20.564187 15.879428 -15.141672
LeftToeBase -8.000449 -0.000000 0.000000
RightUpLeg -66.882982 -31.297578 -4.933231
RightLeg 130.426124 -0.000000 -0.000000
RightFoot 9.461582 -0.759900 15.145854
RightToeBase -6.442528 -0.000000 0.000000
825
root 6.106800 37.182789 5.867223 129.378478 -55.057521 -143.450932
Spine 35.648378 3.305811 9.376670
Head -5.227583 8.148096 13.695339
LeftShoulder -6.753252 12.557385 19.651117
LeftArm 17.572031 -6.535985 -62.006376
LeftForeArm 18.130427 -0.000000 17.880019
LeftHand -13.748016 -0.000000 -10.840454
LeftHandThumb1 -26.253704 0.000000 33.147579
RightShoulder -32.505865 -50.020081 20.553115
RightArm 52.378245 -24.232484 58.085256
RightForeArm 14.647572 -0.000000 19.969784
RightHand 2.414375 -0.000000 13.877386
RightHandThumb1 -24.326973 -0.000000 -32.862282
LeftUpLeg 19.852676 41.580867 32.004674
LeftLeg 18.153386 -0.000000 -0.000000
LeftFoot -20.494557 16.091544 -15.094069
LeftToeBase -8.345812 -0.000000 0.000000
RightUpLeg -68.145611 -31.124121 -4.147425
RightLeg 130.388382 -0.000000 -0.000000
RightFoot 9.547478 -0.586669 15.593104
RightToeBase -6.508295 -0.000000 0.000000
826
root 6.181578 37.212720 5.840510 129.667326 -54.766135 -143.248783
Spine 35.339564 3.286039 9.445121
Head -5.264532 8.508218 13.710027
LeftShoulder -6.705548 12.376993 19.809440
LeftArm 17.717968 -7.802217 -62.029980
LeftForeArm 18.111203 -0.000000 18.248693
LeftHand -13.536946 -0.000000 -10.818125
LeftHandThumb1 -26.253704 0.000000 33.147579
RightShoulder -32.674090 -50.132150 20.794872
RightArm 52.193868 -24.172540 58.108061
RightForeArm 14.596766 -0.000000 20.102246
RightHand 2.198002 -0.000000 14.293845
RightHandThumb1 -24.326973 -0.000000 -32.862282
LeftUpLeg 19.280965 41.713524 31.888014
LeftLeg 17.987181 -0.000000 -0.000000
LeftFoot -20.352292 16.350468 -15.008602
LeftToeBase -8.989428 -0.000000 0.000000
RightUpLeg -68.783233 -31.097659 -3.661407
RightLeg 130.328722 -0.000000 -0.000000
RightFoot 9.470942 -0.237658 15.793272
RightToeBase -6.280467 -0.000000 0.000000
827
root 6.230513 37.249901 5.815361 129.501669 -54.537883 -142.989011
Spine 35.473571 3.100118 9.528441
Head -5.335774 8.924425 13.662625
LeftShoulder -6.660459 12.181711 19.949826
LeftArm 17.838490 -8.794076 -61.984397
LeftForeArm 17.927779 -0.000000 18.781431
LeftHand -13.510598 -0.000000 -10.701427
LeftHandThumb1 -26.253704 0.000000 33.147579
RightShoulder -32.735267 -50.219750 20.849043
RightArm 52.014959 -24.059840 58.262698
RightForeArm 15.431783 0.000000 20.129583
RightHand 1.994800 -0.000000 15.259222
RightHandThumb1 -24.326973 -0.000000 -32.862282
LeftUpLeg 19.242947 41.577578 32.038667
LeftLeg 17.688283 -0.000000 -0.000000
LeftFoot -20.159376 16.599050 -14.939230
LeftToeBase -9.668269 -0.000000 0.000000
RightUpLeg -68.791042 -31.191756 -3.579647
RightLeg 130.274680 -0.000000 -0.000000
RightFoot 9.302177 0.293170 15.983919
RightToeBase -6.335271 -0.000000 0.000000
828
root 6.278207 37.286131 5.790561 129.237876 -54.360637 -142.654771
Spine 35.657868 2.864955 9.606232
Head -5.439952 9.334004 13.616898
LeftShoulder -6.624025 11.974794 20.083108
LeftArm 17.973447 -9.599351 -61.893613
LeftForeArm 17.716124 -0.000000 19.379813
LeftHand -13.501807 -0.000000 -10.388993
LeftHandThumb1 -26.253704 0.000000 33.147579
RightShoulder -32.825873 -50.263769 20.911209
RightArm 51.967308 -24.182833 58.122810
RightForeArm 15.737097 -0.000000 20.156725
RightHand 1.909799 -0.000000 15.446542
RightHandThumb1 -24.326973 -0.000000 -32.862282
LeftUpLeg 19.232681 41.502623 32.258934
LeftLeg 17.429575 -0.000000 -0.000000
LeftFoot -19.958834 16.757843 -14.769576
LeftToeBase -10.387222 -0.000000 0.000000
RightUpLeg -68.721133 -31.356555 -3.557922
RightLeg 130.239338 -0.000000 -0.000000
RightFoot 8.934303 0.877531 15.996768
RightToeBase -5.950468 -0.000000 0.000000
829
root 6.327342 37.324426 5.765761 128.948779 -54.173023 -142.279526
Spine 35.843198 2.618625 9.710987
Head -5.565489 9.731140 13.554563
LeftShoulder -6.591956 11.797003 20.184838
LeftArm 18.158397 -10.391870 -61.836799
LeftForeArm 17.495144 0.000000 20.031515
LeftHand -13.588783 0.000000 -9.949772
LeftHandThumb1 -26.253704 0.000000 33.147579
RightShoulder -32.918430 -50.336239 20.969080
RightArm 51.987952 -24.340175 57.945242
RightForeArm 16.155587 0.000000 20.129085
RightHand 2.016966 -0.000000 14.759010
RightHandThumb1 -24.326973 -0.000000 -32.862282
LeftUpLeg 19.231522 41.482747 32.543139
LeftLeg 17.173320 -0.000000 -0.000000
LeftFoot -19.720127 16.810121 -14.601050
LeftToeBase -11.317833 -0.000000 0.000000
RightUpLeg -68.609373 -31.515867 -3.535055
RightLeg 130.184815 -0.000000 -0.000000
RightFoot 8.559116 1.449095 16.151712
RightToeBase -5.664747 -0.000000 0.000000
830
root 6.402820 37.351369 5.741294 129.158578 -54.016975 -141.930372
Spine 35.472581 2.519920 9.731098
Head -5.591984 10.021590 13.621385
LeftShoulder -6.535376 11.681538 20.283414
LeftArm 18.395864 -11.202779 -61.773996
LeftForeArm 17.486474 0.000000 20.716813
LeftHand -13.655974 -0.000000 -9.582429
LeftHandThumb1 -26.253704 0.000000 33.147579
RightShoulder -33.019407 -50.390305 21.137274
RightArm 51.923058 -24.480381 57.787237
RightForeArm 16.338672 -0.000000 20.029483
RightHand 1.907566 -0.000000 14.731205
RightHandThumb1 -24.326973 -0.000000 -32.862282
LeftUpLeg 18.577718 41.713108 32.396619
LeftLeg 17.012589 -0.000000 -0.000000
LeftFoot -19.537300 16.917637 -14.350120
LeftToeBase -12.690792 -0.000000 0.000000
RightUpLeg -69.147549 -31.607360 -3.211769
RightLeg 130.159409 -0.000000 -0.000000
RightFoot 8.169710 1.966880 16.393568
RightToeBase -5.505877 -0.000000 0.000000
831
root 6.452736 37.386614 5.715015 128.904226 -53.992308 -141.544801
Spine 35.588023 2.263846 9.666246
Head -5.676321 10.275371 13.703304
LeftShoulder -6.455817 11.522445 20.464168
LeftArm 18.637355 -11.976873 -61.819930
LeftForeArm 17.454390 -0.000000 21.423348
LeftHand -13.686362 -0.000000 -9.094078
LeftHandThumb1 -26.253704 0.000000 33.147579
RightShoulder -33.021786 -50.412103 21.185892
RightArm 51.869557 -24.598855 57.741208
RightForeArm 16.277488 -0.000000 19.877109
RightHand 1.970975 -0.000000 14.755135
RightHandThumb1 -24.326973 -0.000000 -32.862282
LeftUpLeg 18.459959 41.645608 32.468793
LeftLeg 16.708288 -0.000000 -0.000000
LeftFoot -19.280977 16.970178 -14.199972
LeftToeBase -13.786930 -0.000000 0.000000
RightUpLeg -69.034596 -31.859476 -3.369197
RightLeg 130.140728 -0.000000 -0.000000
RightFoot 7.816364 2.532599 16.394230
RightToeBase -5.098823 -0.000000 0.000000
832
root 6.503604 37.422608 5.693070 128.557781 -53.972555 -141.108322
Spine 35.783518 1.989508 9.643423
Head -5.826226 10.502611 13.739286
LeftShoulder -6.377615 11.381161 20.608244
LeftArm 18.978522 -12.659271 -61.871638
LeftForeArm 17.252731 -0.000000 22.124148
LeftHand -13.948431 -0.000000 -8.387973
LeftHandThumb1 -26.253704 0.000000 33.147579
RightShoulder -33.014203 -50.399491 21.178235
RightArm 51.818753 -24.739682 57.724456
RightForeArm 16.310677 -0.000000 19.727423
RightHand 2.018089 -0.000000 15.124761
RightHandThumb1 -24.326973 -0.000000 -32.862282
LeftUpLeg 18.409322 41.551738 32.593909
LeftLeg 16.378596 -0.000000 -0.000000
LeftFoot -19.037445 16.919707 -14.139965
LeftToeBase -15.072053 -0.000000 0.000000
RightUpLeg -68.804293 -32.118166 -3.588891
RightLeg 130.083441 -0.000000 -0.000000
RightFoot 7.552736 3.101865 16.451813
RightToeBase -5.040271 -0.000000 0.000000
